<svg width="59" height="59" viewBox="0 0 59 59" fill="none" xmlns="http://www.w3.org/2000/svg">
<g clip-path="url(#clip0_39_147)">
<circle cx="29.5" cy="29.5" r="27.6563" fill="#FEFEF9"/>
<path d="M37.642 27.111C37.2312 27.1093 36.8246 27.1934 36.4482 27.358C36.0718 27.5226 35.734 27.7639 35.4563 28.0666C35.1785 28.3693 34.9671 28.7267 34.8355 29.1158C34.7039 29.505 34.655 29.9173 34.692 30.3265H40.769C40.8083 29.902 40.755 29.474 40.613 29.0721C40.471 28.6702 40.2436 28.3038 39.9464 27.9982C39.6492 27.6926 39.2893 27.455 38.8915 27.3019C38.4937 27.1487 38.0674 27.0836 37.642 27.111ZM22.0955 30.3855H18.467V36.1085H21.417C24.367 36.1085 25.665 35.135 25.665 33.1585C25.665 31.182 24.308 30.3855 22.0955 30.3855ZM24.662 25.1345C24.662 23.571 23.6295 22.627 21.8595 22.627H18.467V27.76H20.9745C23.6 27.76 24.662 26.816 24.662 25.1345Z" fill="#391137"/>
<path d="M29.5 0C23.6655 0 17.9619 1.73014 13.1107 4.97165C8.25944 8.21315 4.47835 12.8204 2.24557 18.2108C0.0127818 23.6013 -0.571416 29.5327 0.566847 35.2552C1.70511 40.9776 4.51471 46.234 8.64036 50.3596C12.766 54.4853 18.0224 57.2949 23.7448 58.4332C29.4673 59.5714 35.3987 58.9872 40.7892 56.7544C46.1796 54.5217 50.7869 50.7406 54.0284 45.8893C57.2699 41.0381 59 35.3345 59 29.5C59 25.626 58.237 21.7899 56.7545 18.2108C55.2719 14.6317 53.099 11.3797 50.3597 8.64035C47.6203 5.90102 44.3683 3.72807 40.7892 2.24555C37.2101 0.76304 33.374 0 29.5 0ZM22.715 38.94H14.75V19.765H22.715C26.1665 19.765 28.438 21.5645 28.438 24.485C28.4787 25.4661 28.1685 26.4297 27.563 27.2028C26.9575 27.9759 26.0963 28.5079 25.134 28.7035C25.7439 28.7176 26.3444 28.8561 26.899 29.1103C27.4535 29.3646 27.9503 29.7293 28.359 30.1822C28.7677 30.6351 29.0797 31.1666 29.2759 31.7442C29.4721 32.3218 29.5483 32.9334 29.5 33.5415C29.5 36.9635 26.55 38.94 22.715 38.94ZM33.1875 21.24H42.0375V22.715H33.1875V21.24ZM44.25 32.5975H34.515V33.0105C34.4643 33.4588 34.5102 33.9127 34.6497 34.3417C34.7893 34.7707 35.0191 35.1649 35.3238 35.4975C35.6286 35.8302 36.001 36.0937 36.4162 36.2702C36.8313 36.4468 37.2795 36.5323 37.7305 36.521C38.3637 36.6194 39.0111 36.4854 39.5533 36.1438C40.0955 35.8023 40.4959 35.2761 40.6805 34.6625H44.25C43.9322 36.0786 43.1035 37.3278 41.9225 38.1714C40.7416 39.0149 39.2911 39.3936 37.8485 39.235C36.9265 39.3281 35.9953 39.218 35.1204 38.9126C34.2455 38.6071 33.4482 38.1136 32.7845 37.4668C32.1209 36.82 31.607 36.0356 31.2791 35.1689C30.9512 34.3022 30.8172 33.3741 30.8865 32.45V31.152C30.8239 30.2566 30.9556 29.3582 31.2727 28.5185C31.5898 27.6788 32.0848 26.9176 32.7237 26.2871C33.3626 25.6566 34.1303 25.1717 34.9741 24.8658C35.818 24.5598 36.718 24.44 37.6125 24.5145C38.5041 24.4573 39.3975 24.5919 40.2327 24.909C41.0679 25.2261 41.8255 25.7185 42.4544 26.3531C43.0833 26.9876 43.569 27.7494 43.8787 28.5874C44.1884 29.4254 44.315 30.32 44.25 31.211V32.5975Z" fill="#391137"/>
</g>
<defs>
<clipPath id="clip0_39_147">
<rect width="59" height="59" fill="white"/>
</clipPath>
</defs>
</svg>
