<svg width="59" height="59" viewBox="0 0 59 59" fill="none" xmlns="http://www.w3.org/2000/svg">
<g clip-path="url(#clip0_39_148)">
<path d="M29.5 0C13.2073 0 -0.00012207 13.2074 -0.00012207 29.5001C-0.00012207 45.7928 13.2073 59.0002 29.5 59.0002C45.7927 59.0002 59.0001 45.7928 59.0001 29.5001C59.0001 13.2074 45.7927 0 29.5 0ZM22.2786 41.7273H16.3048V22.5031H22.2786V41.7273ZM19.2548 20.143C17.3681 20.143 16.1481 18.8063 16.1481 17.1531C16.1481 15.466 17.4049 14.1693 19.3317 14.1693C21.2584 14.1693 22.4384 15.466 22.4753 17.1531C22.4753 18.8063 21.2584 20.143 19.2548 20.143ZM44.0964 41.7273H38.1226V31.0735C38.1226 28.5936 37.2561 26.9096 35.0958 26.9096C33.4456 26.9096 32.4654 28.0497 32.0321 29.1467C31.8723 29.537 31.8323 30.0901 31.8323 30.6402V41.7242H25.8555V28.6335C25.8555 26.2336 25.7787 24.227 25.6988 22.5H30.889L31.1624 25.1704H31.2823C32.069 23.9166 33.9957 22.0667 37.2192 22.0667C41.1495 22.0667 44.0964 24.7002 44.0964 30.3605V41.7273Z" fill="#391137"/>
<path d="M44.0964 41.7273H38.1226V31.0735C38.1226 28.5936 37.2561 26.9096 35.0958 26.9096C33.4456 26.9096 32.4654 28.0497 32.0321 29.1467C31.8723 29.537 31.8323 30.0901 31.8323 30.6402V41.7242H25.8555V28.6335C25.8555 26.2336 25.7787 24.227 25.6988 22.5H30.889L31.1624 25.1704H31.2823C32.069 23.9166 33.9957 22.0667 37.2192 22.0667C41.1495 22.0667 44.0964 24.7002 44.0964 30.3605V41.7273Z" fill="white"/>
<path d="M22.2786 41.7273H16.3048V22.5031H22.2786V41.7273Z" fill="white"/>
<path d="M19.2548 20.143C17.3681 20.143 16.1481 18.8063 16.1481 17.1531C16.1481 15.466 17.4049 14.1693 19.3317 14.1693C21.2584 14.1693 22.4384 15.466 22.4753 17.1531C22.4753 18.8063 21.2584 20.143 19.2548 20.143Z" fill="white"/>
</g>
<defs>
<clipPath id="clip0_39_148">
<rect width="59" height="59" fill="white"/>
</clipPath>
</defs>
</svg>
