<svg width="223" height="49" viewBox="0 0 223 49" fill="none" xmlns="http://www.w3.org/2000/svg">
<path fill-rule="evenodd" clip-rule="evenodd" d="M34.5 24.5C34.5 30.8513 29.3513 36 23 36C16.6487 36 11.5 30.8513 11.5 24.5H34.5ZM34.4893 24H11.5107C11.7725 17.8807 16.8163 13 23 13C29.1837 13 34.2275 17.8807 34.4893 24ZM34.9898 24C34.7276 17.6045 29.4599 12.5 23 12.5C16.5401 12.5 11.2724 17.6045 11.0102 24H8V24.5H11C11 31.1274 16.3726 36.5 23 36.5C29.6274 36.5 35 31.1274 35 24.5H38V24H34.9898Z" fill="black"/>
<path d="M60.976 32L58.96 27.128H49.096L47.008 32H46.432L53.8 15.008H54.472L61.552 32H60.976ZM54.112 15.344L49.288 26.672H58.792L54.112 15.344ZM64.4324 32V13.856H64.9604V32H64.4324ZM69.4144 26.36C69.4144 27.032 69.5104 27.696 69.7024 28.352C69.9104 29.008 70.2144 29.6 70.6144 30.128C71.0304 30.64 71.5504 31.056 72.1744 31.376C72.7984 31.696 73.5344 31.856 74.3824 31.856C75.2464 31.856 76.0144 31.688 76.6864 31.352C77.3584 31 77.9424 30.496 78.4384 29.84L78.8224 30.176C78.2784 30.88 77.6384 31.416 76.9024 31.784C76.1824 32.152 75.3424 32.336 74.3824 32.336C73.5664 32.336 72.8224 32.192 72.1504 31.904C71.4784 31.6 70.8944 31.184 70.3984 30.656C69.9184 30.128 69.5424 29.496 69.2704 28.76C69.0144 28.024 68.8864 27.224 68.8864 26.36C68.8864 25.528 69.0224 24.76 69.2944 24.056C69.5664 23.352 69.9344 22.744 70.3984 22.232C70.8784 21.72 71.4384 21.328 72.0784 21.056C72.7184 20.768 73.4064 20.624 74.1424 20.624C75.0064 20.624 75.7584 20.776 76.3984 21.08C77.0384 21.384 77.5664 21.784 77.9824 22.28C78.4144 22.776 78.7344 23.344 78.9424 23.984C79.1504 24.608 79.2544 25.248 79.2544 25.904V26.36H69.4144ZM78.7504 25.904C78.7344 25.184 78.6064 24.528 78.3664 23.936C78.1424 23.344 77.8304 22.84 77.4304 22.424C77.0304 21.992 76.5504 21.664 75.9904 21.44C75.4304 21.2 74.8064 21.08 74.1184 21.08C73.2864 21.08 72.5744 21.256 71.9824 21.608C71.3904 21.944 70.9024 22.368 70.5184 22.88C70.1504 23.376 69.8784 23.904 69.7024 24.464C69.5264 25.008 69.4384 25.488 69.4384 25.904H78.7504ZM89.3984 29.12C89.3984 29.616 89.3024 30.064 89.1104 30.464C88.9184 30.848 88.6544 31.176 88.3184 31.448C87.9984 31.72 87.6224 31.928 87.1904 32.072C86.7584 32.216 86.2944 32.288 85.7984 32.288C84.9824 32.288 84.2384 32.136 83.5664 31.832C82.9104 31.512 82.3664 31.048 81.9344 30.44L82.3664 30.152C83.1664 31.272 84.3184 31.832 85.8224 31.832C86.1744 31.832 86.5264 31.776 86.8784 31.664C87.2464 31.552 87.5744 31.384 87.8624 31.16C88.1664 30.936 88.4064 30.656 88.5824 30.32C88.7744 29.984 88.8704 29.6 88.8704 29.168C88.8704 28.656 88.7504 28.24 88.5104 27.92C88.2864 27.6 87.9984 27.344 87.6464 27.152C87.2944 26.96 86.9024 26.808 86.4704 26.696C86.0544 26.568 85.6624 26.456 85.2944 26.36C84.8944 26.248 84.5184 26.128 84.1664 26C83.8144 25.856 83.5024 25.68 83.2304 25.472C82.9744 25.248 82.7664 24.976 82.6064 24.656C82.4624 24.336 82.3904 23.936 82.3904 23.456C82.3904 22.976 82.4864 22.56 82.6784 22.208C82.8704 21.856 83.1264 21.568 83.4464 21.344C83.7664 21.104 84.1264 20.928 84.5264 20.816C84.9424 20.688 85.3584 20.624 85.7744 20.624C87.2784 20.624 88.4064 21.16 89.1584 22.232L88.7024 22.496C88.3344 22.016 87.9184 21.664 87.4544 21.44C86.9904 21.2 86.4304 21.08 85.7744 21.08C85.4704 21.08 85.1504 21.12 84.8144 21.2C84.4784 21.28 84.1664 21.416 83.8784 21.608C83.6064 21.784 83.3744 22.024 83.1824 22.328C83.0064 22.632 82.9184 23 82.9184 23.432C82.9184 23.912 82.9904 24.296 83.1344 24.584C83.2944 24.872 83.5104 25.104 83.7824 25.28C84.0544 25.456 84.3824 25.608 84.7664 25.736C85.1504 25.848 85.5744 25.96 86.0384 26.072C86.4704 26.184 86.8864 26.32 87.2864 26.48C87.7024 26.624 88.0624 26.808 88.3664 27.032C88.6864 27.256 88.9344 27.536 89.1104 27.872C89.3024 28.208 89.3984 28.624 89.3984 29.12ZM93.4073 16.808C93.2633 16.808 93.1353 16.752 93.0233 16.64C92.9113 16.528 92.8553 16.376 92.8553 16.184C92.8553 16.008 92.9113 15.864 93.0233 15.752C93.1353 15.64 93.2633 15.584 93.4073 15.584C93.5513 15.584 93.6793 15.64 93.7913 15.752C93.9033 15.864 93.9593 16.008 93.9593 16.184C93.9593 16.376 93.8953 16.528 93.7673 16.64C93.6553 16.752 93.5353 16.808 93.4073 16.808ZM93.1433 32V20.96H93.6713V32H93.1433ZM106.141 29.504C106.141 29.92 106.157 30.368 106.189 30.848C106.237 31.312 106.285 31.696 106.333 32H105.829C105.797 31.84 105.773 31.648 105.757 31.424C105.741 31.184 105.717 30.944 105.685 30.704C105.669 30.448 105.653 30.2 105.637 29.96C105.637 29.72 105.637 29.52 105.637 29.36H105.565C105.245 30.368 104.693 31.12 103.909 31.616C103.125 32.096 102.285 32.336 101.389 32.336C100.941 32.336 100.493 32.272 100.045 32.144C99.6134 32.016 99.2214 31.824 98.8694 31.568C98.5174 31.312 98.2294 30.984 98.0054 30.584C97.7974 30.184 97.6934 29.712 97.6934 29.168C97.6934 28.384 97.8934 27.752 98.2934 27.272C98.7094 26.792 99.2214 26.424 99.8294 26.168C100.437 25.896 101.085 25.72 101.773 25.64C102.477 25.56 103.117 25.52 103.693 25.52H105.613V24.632C105.613 23.4 105.285 22.504 104.629 21.944C103.973 21.368 103.117 21.08 102.061 21.08C101.405 21.08 100.789 21.2 100.213 21.44C99.6534 21.68 99.1494 22 98.7014 22.4L98.4134 21.992C98.9254 21.544 99.5014 21.208 100.141 20.984C100.797 20.744 101.437 20.624 102.061 20.624C103.325 20.624 104.317 20.952 105.037 21.608C105.773 22.248 106.141 23.264 106.141 24.656V29.504ZM105.613 25.976H103.909C103.301 25.976 102.661 26.016 101.989 26.096C101.317 26.16 100.701 26.304 100.141 26.528C99.5814 26.752 99.1174 27.072 98.7494 27.488C98.3974 27.904 98.2214 28.464 98.2214 29.168C98.2214 29.68 98.3174 30.112 98.5094 30.464C98.7174 30.8 98.9734 31.072 99.2774 31.28C99.5974 31.488 99.9414 31.64 100.309 31.736C100.693 31.832 101.053 31.88 101.389 31.88C102.205 31.88 102.885 31.728 103.429 31.424C103.973 31.12 104.405 30.736 104.725 30.272C105.061 29.792 105.293 29.272 105.421 28.712C105.549 28.136 105.613 27.576 105.613 27.032V25.976ZM133.591 23.504C133.591 24.816 133.367 26.024 132.919 27.128C132.487 28.216 131.879 29.16 131.095 29.96C130.327 30.744 129.407 31.36 128.335 31.808C127.263 32.256 126.103 32.48 124.855 32.48C123.607 32.48 122.447 32.256 121.375 31.808C120.303 31.36 119.375 30.744 118.591 29.96C117.823 29.16 117.215 28.216 116.767 27.128C116.335 26.024 116.119 24.816 116.119 23.504C116.119 22.192 116.335 20.992 116.767 19.904C117.215 18.8 117.823 17.856 118.591 17.072C119.375 16.272 120.295 15.648 121.351 15.2C122.423 14.752 123.591 14.528 124.855 14.528C126.119 14.528 127.279 14.752 128.335 15.2C129.407 15.648 130.327 16.272 131.095 17.072C131.879 17.856 132.487 18.8 132.919 19.904C133.367 20.992 133.591 22.192 133.591 23.504ZM133.063 23.504C133.063 22.32 132.863 21.216 132.463 20.192C132.063 19.152 131.495 18.248 130.759 17.48C130.039 16.712 129.175 16.112 128.167 15.68C127.159 15.232 126.055 15.008 124.855 15.008C123.655 15.008 122.551 15.232 121.543 15.68C120.535 16.112 119.663 16.712 118.927 17.48C118.207 18.248 117.647 19.152 117.247 20.192C116.847 21.216 116.647 22.32 116.647 23.504C116.647 24.688 116.839 25.8 117.223 26.84C117.623 27.864 118.183 28.76 118.903 29.528C119.623 30.296 120.487 30.904 121.495 31.352C122.503 31.784 123.623 32 124.855 32C126.087 32 127.207 31.784 128.215 31.352C129.223 30.904 130.087 30.296 130.807 29.528C131.527 28.76 132.079 27.864 132.463 26.84C132.863 25.8 133.063 24.688 133.063 23.504ZM138.392 23.864C138.712 22.712 139.224 21.888 139.928 21.392C140.632 20.88 141.392 20.624 142.208 20.624C142.288 20.624 142.36 20.624 142.424 20.624C142.488 20.624 142.56 20.632 142.64 20.648V21.104C142.576 21.088 142.512 21.08 142.448 21.08C142.4 21.08 142.36 21.08 142.328 21.08C141.624 21.08 141.024 21.24 140.528 21.56C140.032 21.864 139.624 22.272 139.304 22.784C138.984 23.28 138.744 23.84 138.584 24.464C138.44 25.072 138.368 25.68 138.368 26.288V32H137.84V23.744C137.84 23.568 137.832 23.352 137.816 23.096C137.816 22.84 137.808 22.584 137.792 22.328C137.792 22.056 137.784 21.8 137.768 21.56C137.752 21.32 137.736 21.12 137.72 20.96H138.248C138.264 21.12 138.272 21.32 138.272 21.56C138.288 21.8 138.296 22.064 138.296 22.352C138.312 22.624 138.32 22.896 138.32 23.168C138.336 23.424 138.344 23.656 138.344 23.864H138.392ZM152.688 29.504C152.688 29.92 152.704 30.368 152.736 30.848C152.784 31.312 152.832 31.696 152.88 32H152.376C152.344 31.84 152.32 31.648 152.304 31.424C152.288 31.184 152.264 30.944 152.232 30.704C152.216 30.448 152.2 30.2 152.184 29.96C152.184 29.72 152.184 29.52 152.184 29.36H152.112C151.792 30.368 151.24 31.12 150.456 31.616C149.672 32.096 148.832 32.336 147.936 32.336C147.488 32.336 147.04 32.272 146.592 32.144C146.16 32.016 145.768 31.824 145.416 31.568C145.064 31.312 144.776 30.984 144.552 30.584C144.344 30.184 144.24 29.712 144.24 29.168C144.24 28.384 144.44 27.752 144.84 27.272C145.256 26.792 145.768 26.424 146.376 26.168C146.984 25.896 147.632 25.72 148.32 25.64C149.024 25.56 149.664 25.52 150.24 25.52H152.16V24.632C152.16 23.4 151.832 22.504 151.176 21.944C150.52 21.368 149.664 21.08 148.608 21.08C147.952 21.08 147.336 21.2 146.76 21.44C146.2 21.68 145.696 22 145.248 22.4L144.96 21.992C145.472 21.544 146.048 21.208 146.688 20.984C147.344 20.744 147.984 20.624 148.608 20.624C149.872 20.624 150.864 20.952 151.584 21.608C152.32 22.248 152.688 23.264 152.688 24.656V29.504ZM152.16 25.976H150.456C149.848 25.976 149.208 26.016 148.536 26.096C147.864 26.16 147.248 26.304 146.688 26.528C146.128 26.752 145.664 27.072 145.296 27.488C144.944 27.904 144.768 28.464 144.768 29.168C144.768 29.68 144.864 30.112 145.056 30.464C145.264 30.8 145.52 31.072 145.824 31.28C146.144 31.488 146.488 31.64 146.856 31.736C147.24 31.832 147.6 31.88 147.936 31.88C148.752 31.88 149.432 31.728 149.976 31.424C150.52 31.12 150.952 30.736 151.272 30.272C151.608 29.792 151.84 29.272 151.968 28.712C152.096 28.136 152.16 27.576 152.16 27.032V25.976ZM160.554 32H159.858L155.514 20.96H156.09L160.194 31.472H160.242L164.202 20.96H164.778L160.554 32ZM175.664 22.448C175.248 22.016 174.76 21.68 174.2 21.44C173.64 21.2 173.056 21.08 172.448 21.08C171.664 21.08 170.96 21.232 170.336 21.536C169.712 21.824 169.176 22.216 168.728 22.712C168.296 23.208 167.96 23.784 167.72 24.44C167.48 25.096 167.36 25.784 167.36 26.504C167.36 27.224 167.48 27.912 167.72 28.568C167.96 29.224 168.296 29.8 168.728 30.296C169.176 30.776 169.712 31.16 170.336 31.448C170.96 31.736 171.664 31.88 172.448 31.88C173.056 31.88 173.648 31.776 174.224 31.568C174.816 31.36 175.328 31.048 175.76 30.632L176.12 30.968C175.64 31.448 175.072 31.792 174.416 32C173.776 32.224 173.12 32.336 172.448 32.336C171.632 32.336 170.88 32.192 170.192 31.904C169.52 31.616 168.928 31.216 168.416 30.704C167.92 30.192 167.528 29.576 167.24 28.856C166.968 28.136 166.832 27.352 166.832 26.504C166.832 25.656 166.968 24.872 167.24 24.152C167.528 23.432 167.92 22.816 168.416 22.304C168.928 21.776 169.52 21.368 170.192 21.08C170.88 20.776 171.632 20.624 172.448 20.624C173.152 20.624 173.816 20.752 174.44 21.008C175.08 21.264 175.624 21.624 176.072 22.088L175.664 22.448ZM189.907 26.456C189.907 27.32 189.763 28.112 189.475 28.832C189.203 29.552 188.811 30.176 188.299 30.704C187.787 31.216 187.171 31.616 186.451 31.904C185.747 32.192 184.971 32.336 184.123 32.336C183.275 32.336 182.499 32.192 181.795 31.904C181.091 31.616 180.483 31.216 179.971 30.704C179.459 30.176 179.059 29.552 178.771 28.832C178.499 28.112 178.363 27.32 178.363 26.456C178.363 25.592 178.499 24.808 178.771 24.104C179.059 23.384 179.459 22.768 179.971 22.256C180.483 21.744 181.091 21.344 181.795 21.056C182.499 20.768 183.275 20.624 184.123 20.624C184.971 20.624 185.747 20.768 186.451 21.056C187.171 21.344 187.787 21.744 188.299 22.256C188.811 22.768 189.203 23.384 189.475 24.104C189.763 24.808 189.907 25.592 189.907 26.456ZM189.379 26.456C189.379 25.72 189.259 25.024 189.019 24.368C188.779 23.712 188.427 23.144 187.963 22.664C187.515 22.168 186.963 21.784 186.307 21.512C185.667 21.224 184.939 21.08 184.123 21.08C183.307 21.08 182.579 21.224 181.939 21.512C181.299 21.784 180.747 22.168 180.283 22.664C179.835 23.144 179.491 23.712 179.251 24.368C179.011 25.024 178.891 25.72 178.891 26.456C178.891 27.208 179.011 27.912 179.251 28.568C179.491 29.224 179.835 29.8 180.283 30.296C180.747 30.776 181.299 31.16 181.939 31.448C182.579 31.736 183.307 31.88 184.123 31.88C184.939 31.88 185.667 31.736 186.307 31.448C186.963 31.16 187.515 30.776 187.963 30.296C188.427 29.8 188.779 29.224 189.019 28.568C189.259 27.912 189.379 27.208 189.379 26.456ZM197.022 32H196.326L191.982 20.96H192.558L196.662 31.472H196.71L200.67 20.96H201.246L197.022 32ZM211.845 29.504C211.845 29.92 211.861 30.368 211.893 30.848C211.941 31.312 211.989 31.696 212.037 32H211.533C211.501 31.84 211.477 31.648 211.461 31.424C211.445 31.184 211.421 30.944 211.389 30.704C211.373 30.448 211.357 30.2 211.341 29.96C211.341 29.72 211.341 29.52 211.341 29.36H211.269C210.949 30.368 210.397 31.12 209.613 31.616C208.829 32.096 207.989 32.336 207.093 32.336C206.645 32.336 206.197 32.272 205.749 32.144C205.317 32.016 204.925 31.824 204.573 31.568C204.221 31.312 203.933 30.984 203.709 30.584C203.501 30.184 203.396 29.712 203.396 29.168C203.396 28.384 203.597 27.752 203.997 27.272C204.413 26.792 204.925 26.424 205.533 26.168C206.141 25.896 206.789 25.72 207.477 25.64C208.181 25.56 208.821 25.52 209.397 25.52H211.317V24.632C211.317 23.4 210.989 22.504 210.333 21.944C209.677 21.368 208.821 21.08 207.765 21.08C207.109 21.08 206.493 21.2 205.917 21.44C205.357 21.68 204.853 22 204.405 22.4L204.117 21.992C204.629 21.544 205.205 21.208 205.845 20.984C206.501 20.744 207.141 20.624 207.765 20.624C209.029 20.624 210.021 20.952 210.741 21.608C211.477 22.248 211.845 23.264 211.845 24.656V29.504ZM211.317 25.976H209.613C209.005 25.976 208.365 26.016 207.693 26.096C207.021 26.16 206.405 26.304 205.845 26.528C205.285 26.752 204.821 27.072 204.453 27.488C204.101 27.904 203.925 28.464 203.925 29.168C203.925 29.68 204.021 30.112 204.213 30.464C204.421 30.8 204.677 31.072 204.98 31.28C205.301 31.488 205.645 31.64 206.013 31.736C206.397 31.832 206.757 31.88 207.093 31.88C207.909 31.88 208.589 31.728 209.133 31.424C209.677 31.12 210.109 30.736 210.429 30.272C210.765 29.792 210.997 29.272 211.125 28.712C211.253 28.136 211.317 27.576 211.317 27.032V25.976ZM207.861 18.464H207.405L209.877 15.008H210.525L207.861 18.464Z" fill="black"/>
</svg>
